# xmcd CD database file
#
# Track frame offsets:
#	150
#	53536
#	92456
#
# Disc length: 2435 seconds
#
# Revision: 0
# Processed by: cddbd v1.4PL0 Copyright (c) Steve Scherf et al.
# Submitted via: CDex 1.50
#
DISCID=15098103
DTITLE=Larry Coryell - Barefoot Boy
DYEAR=1971
DGENRE=Jazz
TTITLE0=Gypsy Queen
TTITLE1=The Great Escape
TTITLE2=Call To The Higher Consciousness
EXTD=YEAR: 1971
EXTT0=
EXTT1=
EXTT2=
PLAYORDER=
